<svg xmlns="http://www.w3.org/2000/svg" viewBox="0 0 64 96">
  <rect x="1" y="1" width="62" height="94" rx="6" fill="#0b1d3a" stroke="#d4af37" stroke-width="2"/>
  <rect x="5" y="5" width="54" height="86" rx="3" fill="none" stroke="#d4af37" stroke-width="1"/>
  <rect x="8" y="8" width="48" height="80" rx="2" fill="none" stroke="#d4af37" stroke-width=".7" opacity=".65"/>
  <g transform="translate(32 48)" stroke="#d4af37" stroke-linejoin="round">
    <circle r="22" fill="none" stroke-width="1"/><circle r="17" fill="none" stroke-width=".6" opacity=".7"/>
    <path d="M0-27V27M-27 0H27" stroke-width=".7" opacity=".65"/>
    <path d="m0-21 5 16 16 5-16 5-5 16-5-16-16-5 16-5z" fill="#d4af37" fill-opacity=".14" stroke-width="1.1"/>
    <path d="m0-21-5 16L0 0 5-5zm21 21L5-5 0 0l5 5zM0 21 5 5 0 0-5 5zM-21 0l16 5L0 0l-5-5z" fill="#d4af37" fill-opacity=".8" stroke-width=".6"/>
  </g>
  <g fill="#d4af37"><circle cx="12" cy="14" r="1"/><circle cx="52" cy="14" r="1"/><circle cx="12" cy="82" r="1"/><circle cx="52" cy="82" r="1"/></g>
</svg>
